<svg id="drink" xmlns="http://www.w3.org/2000/svg" width="18.529" height="33.658" viewBox="0 0 18.529 33.658">
  <path id="Path_94" data-name="Path 94" d="M262.4,1.772,256.019.034A.986.986,0,0,0,254.8.762l-1.087,4.653h2.025l.75-3.209,5.395,1.469a.986.986,0,0,0,.518-1.9Z" transform="translate(-244.599 0)" fill="#e7014b"/>
  <path id="Path_95" data-name="Path 95" d="M273.672,86.757a9.213,9.213,0,0,1,.4-3.1.986.986,0,0,0-.94-1.283h-3.173l-1.025,4.386Z" transform="translate(-258.822 -76.956)" fill="#e7014b"/>
  <path id="Path_96" data-name="Path 96" d="M129.738,82.763a.986.986,0,0,0-.162.864,9.433,9.433,0,0,1,.33,3.13h6.771l1.025-4.386h-7.177A.986.986,0,0,0,129.738,82.763Z" transform="translate(-128.588 -76.956)" fill="#e7014b"/>
  <path id="Path_97" data-name="Path 97" d="M130.577,181.195c-.156-.675-.318-1.378-.443-2.1h-14c-.126.642-.28,1.261-.428,1.858-.186.747-.362,1.453-.467,2.135-.238,1.534-.548,5.384,1.693,8a7.361,7.361,0,0,0,5.253,2.42V199H118.5a.986.986,0,0,0,0,1.972h9.329a.986.986,0,0,0,0-1.972h-3.678v-5.5a7.305,7.305,0,0,0,5.117-2.317c1.092-1.242,2.279-3.609,1.733-7.838C130.92,182.681,130.753,181.959,130.577,181.195Z" transform="translate(-115.073 -167.318)" fill="#e7014b"/>
</svg>
