<svg xmlns="http://www.w3.org/2000/svg" width="12.029" height="22.154" viewBox="0 0 12.029 22.154">
  <g id="energy-drink" transform="translate(0)">
    <path id="Path_3" data-name="Path 3" d="M63.251,0h-4.1A1.467,1.467,0,0,0,57.68,1.467V4.8h7.038V1.467A1.467,1.467,0,0,0,63.251,0Zm0,0" transform="translate(-55.184)" fill="#69a2de"/>
    <g id="Group_3" data-name="Group 3" transform="translate(3.488 1.29)">
      <path id="Path_4" data-name="Path 4" d="M80.944,30.89a.334.334,0,0,1-.334-.334v-.4a.334.334,0,1,1,.669,0v.4A.334.334,0,0,1,80.944,30.89Zm0,0" transform="translate(-80.609 -29.824)" fill="#333a41"/>
      <path id="Path_5" data-name="Path 5" d="M182.28,30.89a.334.334,0,0,1-.334-.334v-.4a.334.334,0,0,1,.669,0v.4A.334.334,0,0,1,182.28,30.89Zm0,0" transform="translate(-177.561 -29.824)" fill="#333a41"/>
      <path id="Path_6" data-name="Path 6" d="M119.646,39.264a1.05,1.05,0,0,1-.793-.354.334.334,0,0,1,.5-.44.4.4,0,0,0,.579,0,.334.334,0,0,1,.5.44A1.05,1.05,0,0,1,119.646,39.264Zm0,0" transform="translate(-117.119 -37.987)" fill="#333a41"/>
    </g>
    <path id="Path_7" data-name="Path 7" d="M13.546,114.439,7.6,115.464,1.66,114.439c.211-1.975,2.424-2.358,2.424-2.358L7.6,111.031l3.519,1.049s2.213.383,2.424,2.358Zm0,0" transform="translate(-1.588 -106.227)" fill="#f8b459"/>
    <path id="Path_8" data-name="Path 8" d="M3,114.439c.211-1.975,2.424-2.358,2.424-2.358l2.85-.85-.669-.2-3.519,1.049s-2.213.383-2.424,2.358L7.6,115.464l.669-.115Zm0,0" transform="translate(-1.588 -106.227)" fill="#ec8d00"/>
    <path id="Path_9" data-name="Path 9" d="M12.029,391.125v1.708a2.441,2.441,0,0,1-2.442,2.442H2.442A2.441,2.441,0,0,1,0,392.833v-1.708L5.944,390Zm0,0" transform="translate(0 -373.121)" fill="#f8b459"/>
    <path id="Path_10" data-name="Path 10" d="M2.053,394.561a2.442,2.442,0,0,1-.715-1.727v-1.708l5.283-1L5.944,390,0,391.126v1.708a2.442,2.442,0,0,0,2.442,2.442H3.78a2.443,2.443,0,0,1-1.727-.715Zm0,0" transform="translate(-0.001 -373.122)" fill="#ec8d00"/>
    <path id="Path_11" data-name="Path 11" d="M38.923,81.363H31.886a1.167,1.167,0,0,0,0,2.333h7.038a1.167,1.167,0,1,0,0-2.333Zm0,0" transform="translate(-29.39 -77.843)" fill="#f7eb7f"/>
    <path id="Path_12" data-name="Path 12" d="M32.056,82.53a1.167,1.167,0,0,1,1.166-1.167H31.885a1.167,1.167,0,0,0,0,2.333h1.337A1.167,1.167,0,0,1,32.056,82.53Zm0,0" transform="translate(-29.39 -77.843)" fill="#f8b459"/>
    <path id="Path_13" data-name="Path 13" d="M12.029,195.253v4.325H0v-4.325a1.542,1.542,0,0,1,.452-1.091l.071-.072a1.539,1.539,0,0,0,.335-.5A1.543,1.543,0,0,0,.976,193a1.542,1.542,0,0,0-.452-1.091l-.015-.016A1.542,1.542,0,0,1,.056,190.8v-.707a2.954,2.954,0,0,1,.016-.308H11.957a3,3,0,0,1,.016.308v.707a1.542,1.542,0,0,1-.452,1.092l-.015.016a1.543,1.543,0,0,0,0,2.183l.071.072a1.542,1.542,0,0,1,.452,1.091Zm0,0" transform="translate(0 -181.574)" fill="#69a2de"/>
    <path id="Path_14" data-name="Path 14" d="M1.79,194.162l.071-.072a1.543,1.543,0,0,0,0-2.183l-.016-.016a1.543,1.543,0,0,1-.452-1.092v-.706a2.955,2.955,0,0,1,.016-.308H.072a2.956,2.956,0,0,0-.016.308v.706a1.543,1.543,0,0,0,.452,1.092l.015.016A1.543,1.543,0,0,1,.976,193a1.542,1.542,0,0,1-.118.591,1.537,1.537,0,0,1-.335.5l-.071.072A1.542,1.542,0,0,0,0,195.253v4.325H1.337v-4.325a1.542,1.542,0,0,1,.452-1.091Zm0,0" transform="translate(0 -181.573)" fill="#007dcf"/>
    <path id="Path_15" data-name="Path 15" d="M86.622,228.778l-.675,2.818a.371.371,0,0,0,.361.457h1.411a.242.242,0,0,1,.231.316l-.816,2.555,3.347-3.892a.2.2,0,0,0-.149-.325H88.975a.333.333,0,0,1-.312-.448l.464-1.26a.382.382,0,0,0-.359-.514H86.994A.382.382,0,0,0,86.622,228.778Zm0,0" transform="translate(-82.218 -218.598)" fill="#f7eb7f"/>
  </g>
</svg>
