<svg id="Layer_2" data-name="Layer 2" xmlns="http://www.w3.org/2000/svg" width="22.15" height="30.5" viewBox="0 0 22.15 30.5">
  <path id="Path_2" data-name="Path 2" d="M16.182,1a6.1,6.1,0,0,0-6.1,6.1V8.117H9.238a3.324,3.324,0,0,0-3.324,3.172l-.8,16.724A3.335,3.335,0,0,0,8.435,31.5H23.929a3.335,3.335,0,0,0,3.324-3.487l-.8-16.724a3.325,3.325,0,0,0-3.325-3.172h-.844V7.1a6.1,6.1,0,0,0-6.1-6.1ZM12.115,7.1a4.067,4.067,0,0,1,8.133,0V8.117H12.115Zm-1.667,5.277a1.017,1.017,0,1,1,1.017,1.017A1.017,1.017,0,0,1,10.448,12.377Zm9.435,0A1.017,1.017,0,1,1,20.9,13.393,1.017,1.017,0,0,1,19.882,12.377Z" transform="translate(-5.107 -1)" fill="#fff"/>
</svg>
