<svg id="Layer_2" data-name="Layer 2" xmlns="http://www.w3.org/2000/svg" width="21.348" height="29.396" viewBox="0 0 21.348 29.396">
  <path id="Path_2" data-name="Path 2" d="M15.781,1A5.879,5.879,0,0,0,9.9,6.879v.98H9.088a3.2,3.2,0,0,0-3.2,3.057L5.11,27.035a3.214,3.214,0,0,0,3.2,3.361H23.247a3.214,3.214,0,0,0,3.2-3.361l-.774-16.119a3.2,3.2,0,0,0-3.2-3.057H21.66v-.98A5.879,5.879,0,0,0,15.781,1ZM11.861,6.879a3.919,3.919,0,1,1,7.839,0v.98H11.861Zm-1.607,5.085a.98.98,0,1,1,.98.98A.98.98,0,0,1,10.254,11.965Zm9.093,0a.98.98,0,1,1,.98.98A.98.98,0,0,1,19.347,11.965Z" transform="translate(-5.107 -1)" fill="#e7014b"/>
</svg>
