<svg id="Layer_29" xmlns="http://www.w3.org/2000/svg" width="15.598" height="33.658" viewBox="0 0 15.598 33.658">
  <g id="Group_23" data-name="Group 23">
    <path id="Path_89" data-name="Path 89" d="M17.7,471.3H30.9v1.429H17.7Z" transform="translate(-16.49 -439.071)" fill="#261d31"/>
    <path id="Path_90" data-name="Path 90" d="M75.846,222.829a.423.423,0,0,1-.041-.383l1.327-3.146H74.567L72.7,223.875h2.01a.412.412,0,0,1,.41.41.463.463,0,0,1-.014.1l-.841,3.576,3.857-4.944H76.188A.407.407,0,0,1,75.846,222.829Z" transform="translate(-67.728 -204.303)" fill="#261d31"/>
    <path id="Path_91" data-name="Path 91" d="M117.225,3.912l.5-3.262a.839.839,0,0,0-.9-.65H115c-.479,0-.889.294-.9.65l.431,3.262ZM115.5.862h.821V1.956H115.5Z" transform="translate(-106.297)" fill="#261d31"/>
    <path id="Path_92" data-name="Path 92" d="M17.7,69.2H30.9v1.333H17.7Z" transform="translate(-16.49 -64.468)" fill="#261d31"/>
    <path id="Path_93" data-name="Path 93" d="M1.005,100.7,0,102.375v21.349l.992,1.5H14.6l1-1.5V102.375L14.593,100.7Zm10.552,11.666-5.519,7.078a.433.433,0,0,1-.328.157.4.4,0,0,1-.41-.383.339.339,0,0,1,.014-.116l1.149-4.9h-2.1a.418.418,0,0,1-.342-.178.437.437,0,0,1-.041-.39l2.2-5.4a.409.409,0,0,1,.383-.253h3.453a.407.407,0,0,1,.342.185.385.385,0,0,1,.041.383L9.075,111.7h2.161a.411.411,0,0,1,.41.41.406.406,0,0,1-.089.253Z" transform="translate(0 -93.814)" fill="#261d31"/>
  </g>
</svg>
