<svg id="steak" xmlns="http://www.w3.org/2000/svg" width="26.633" height="23.507" viewBox="0 0 26.633 23.507">
  <g id="Group_24" data-name="Group 24" transform="translate(0 0)">
    <ellipse id="Ellipse_11" data-name="Ellipse 11" cx="2.432" cy="1.618" rx="2.432" ry="1.618" transform="translate(15.642 8.84)" fill="#261d31"/>
    <path id="Path_98" data-name="Path 98" d="M0,263.783v1.9a3.283,3.283,0,0,0,.7,2.05c1.774,2.089,4.217,2.005,6.769,2.644a26.394,26.394,0,0,0-3.26-4.63A6.839,6.839,0,0,1,0,263.783Z" transform="translate(0 -251.624)" fill="#261d31"/>
    <path id="Path_99" data-name="Path 99" d="M136.532,316.781c1.388,1.285,2.7,2.5,6.5,2.5,5.2.141,8.379-4.024,8.659-8.722a9.7,9.7,0,0,1-8.659,4.642c-4.489,0-6.267-1.646-7.7-2.97a5.763,5.763,0,0,0-3.4-1.873,18.465,18.465,0,0,1,2.885,5.038A11.367,11.367,0,0,1,136.532,316.781Z" transform="translate(-125.073 -295.777)" fill="#261d31"/>
    <path id="Path_100" data-name="Path 100" d="M4.873,32.923a7.49,7.49,0,0,0-2.484,2.842.69.69,0,0,1-.043.1,4.373,4.373,0,0,0-.336,1.009c4.3-.924,7.765-2.648,12.953-6.823C11.839,30.137,7.826,30.745,4.873,32.923Z" transform="translate(-1.904 -30.047)" fill="#261d31"/>
    <path id="Path_101" data-name="Path 101" d="M27.865,40.054c0-.005,0-.01,0-.015-.01-5.319-4.985-8.755-10.94-9.04C10.76,36.383,6.357,38.6,1.3,39.568a4.378,4.378,0,0,0,.826,1.863c1.133,1.508,2.422,1.712,4.373,2.02A28.055,28.055,0,0,1,9.313,44a7.588,7.588,0,0,1,3.379,2.1c1.388,1.285,2.7,2.5,6.5,2.5a7.972,7.972,0,0,0,6.365-2.716,10.624,10.624,0,0,0,2.238-4.979,5.4,5.4,0,0,0,.074-.81ZM22.184,43.88a5.027,5.027,0,0,1-5.753,0,2.986,2.986,0,0,1,0-4.948,5,5,0,0,1,5.753,0A2.986,2.986,0,0,1,22.184,43.88Z" transform="translate(-1.232 -30.949)" fill="#261d31"/>
  </g>
</svg>
