<svg id="waiter" xmlns="http://www.w3.org/2000/svg" width="20.569" height="29.235" viewBox="0 0 20.569 29.235">
  <g id="Group_25" data-name="Group 25" transform="translate(0)">
    <path id="Path_102" data-name="Path 102" d="M16.151,58.911c.037,0,2.013.1,2.013.1,1.23,1.4,3.76,1.94,6.558,1.94,2.97,0,5.3-.652,6.47-1.94,0,0,1.976-.1,2.013-.1a2.039,2.039,0,0,0,1.753-2.238c-.339-6.57-2.8-9.855-5.18-11.29l-.006,0L26.251,56.441l-.558-5.579a1.584,1.584,0,0,0-1.037-2.788,1.553,1.553,0,0,0-1.546,1.59,1.578,1.578,0,0,0,.555,1.2l-.558,5.579-3.53-11.058c-2.39,1.418-4.839,4.676-5.18,11.289A2.04,2.04,0,0,0,16.151,58.911Zm14.184-1.742.336-8.387.013-.042c1.121,1.492,2.183,3.964,2.393,8.031a.429.429,0,0,1-.063.262l-1.916.1Zm-2.647-1.627h1.887v.688H27.689ZM16.282,56.769c.21-4.076,1.276-6.549,2.4-8.04l.338,8.44-.762-.039-1.916-.1A.425.425,0,0,1,16.282,56.769Z" transform="translate(-14.394 -31.719)" fill="#261d31"/>
    <path id="Path_103" data-name="Path 103" d="M38.568,8.577c.254-1.484-.279-2.208-1.218-2.371C37.031,2.721,36.056,0,31.12,0c-4.908,0-5.91,2.721-6.23,6.207-.938.162-1.471.886-1.218,2.371.213,1.242.784,2.3,1.875,2.4,1.039,2.786,3.143,4.505,5.573,4.505,2.543,0,4.52-1.787,5.571-4.505C37.761,10.88,38.353,9.834,38.568,8.577Zm-2.911-.1c-.473,3.034-2.147,5.235-4.537,5.235-2.539,0-4.423-2.529-4.64-6.107a4.876,4.876,0,0,0,3.489-2.37A8.4,8.4,0,0,0,35.658,8.477Z" transform="translate(-20.835)" fill="#261d31"/>
  </g>
</svg>
